<svg width="816" height="504" viewBox="0 0 816 504" fill="none" xmlns="http://www.w3.org/2000/svg">
<g clip-path="url(#clip0_11_2)">
<rect width="816" height="504" fill="url(#paint0_linear_11_2)"/>
<rect x="388.803" y="88.3193" width="353.699" height="390" rx="100" transform="rotate(118.739 388.803 88.3193)" fill="#3B7F6D"/>
<rect x="1003.79" y="125.176" width="431.364" height="733.175" rx="100" transform="rotate(125.176 1003.79 125.176)" fill="#519080"/>
<rect x="487.222" y="832.568" width="395.809" height="689.694" rx="100" transform="rotate(-134.459 487.222 832.568)" fill="#3B7F6D"/>
<rect x="-211.881" y="419.716" width="304.099" height="782.078" rx="100" transform="rotate(-67.0109 -211.881 419.716)" fill="#93C2B6"/>
<path d="M322.46 209.301L239.203 361.13C212.648 409.555 151.865 427.285 103.439 400.73L-150.839 261.293L-19.4997 21.7825L322.46 209.301Z" fill="#3B7F6D"/>
<path d="M206.531 261.062V278H201.281V233.188H213.594C218.385 233.188 222.094 234.354 224.719 236.688C227.365 239.021 228.688 242.312 228.688 246.562C228.688 250.812 227.219 254.292 224.281 257C221.365 259.708 217.417 261.062 212.438 261.062H206.531ZM206.531 237.938V256.312H212.031C215.656 256.312 218.417 255.49 220.312 253.844C222.229 252.177 223.188 249.833 223.188 246.812C223.188 240.896 219.688 237.938 212.688 237.938H206.531ZM253.156 251.188C252.26 250.5 250.969 250.156 249.281 250.156C247.094 250.156 245.26 251.188 243.781 253.25C242.323 255.312 241.594 258.125 241.594 261.688V278H236.469V246H241.594V252.594H241.719C242.448 250.344 243.562 248.594 245.062 247.344C246.562 246.073 248.24 245.438 250.094 245.438C251.427 245.438 252.448 245.583 253.156 245.875V251.188ZM272.094 278.75C267.365 278.75 263.583 277.26 260.75 274.281C257.938 271.281 256.531 267.312 256.531 262.375C256.531 257 258 252.802 260.938 249.781C263.875 246.76 267.844 245.25 272.844 245.25C277.615 245.25 281.333 246.719 284 249.656C286.688 252.594 288.031 256.667 288.031 261.875C288.031 266.979 286.583 271.073 283.688 274.156C280.812 277.219 276.948 278.75 272.094 278.75ZM272.469 249.562C269.177 249.562 266.573 250.688 264.656 252.938C262.74 255.167 261.781 258.25 261.781 262.188C261.781 265.979 262.75 268.969 264.688 271.156C266.625 273.344 269.219 274.438 272.469 274.438C275.781 274.438 278.323 273.365 280.094 271.219C281.885 269.073 282.781 266.021 282.781 262.062C282.781 258.062 281.885 254.979 280.094 252.812C278.323 250.646 275.781 249.562 272.469 249.562ZM341.656 278H336.531V259.625C336.531 256.083 335.979 253.521 334.875 251.938C333.792 250.354 331.958 249.562 329.375 249.562C327.188 249.562 325.323 250.562 323.781 252.562C322.26 254.562 321.5 256.958 321.5 259.75V278H316.375V259C316.375 252.708 313.948 249.562 309.094 249.562C306.844 249.562 304.99 250.51 303.531 252.406C302.073 254.281 301.344 256.729 301.344 259.75V278H296.219V246H301.344V251.062H301.469C303.74 247.188 307.052 245.25 311.406 245.25C313.594 245.25 315.5 245.865 317.125 247.094C318.75 248.302 319.865 249.896 320.469 251.875C322.844 247.458 326.385 245.25 331.094 245.25C338.135 245.25 341.656 249.594 341.656 258.281V278ZM356.594 273.375H356.469V292.719H351.344V246H356.469V251.625H356.594C359.115 247.375 362.802 245.25 367.656 245.25C371.781 245.25 375 246.688 377.312 249.562C379.625 252.417 380.781 256.25 380.781 261.062C380.781 266.417 379.479 270.708 376.875 273.938C374.271 277.146 370.708 278.75 366.188 278.75C362.042 278.75 358.844 276.958 356.594 273.375ZM356.469 260.469V264.938C356.469 267.583 357.323 269.833 359.031 271.688C360.76 273.521 362.948 274.438 365.594 274.438C368.698 274.438 371.125 273.25 372.875 270.875C374.646 268.5 375.531 265.198 375.531 260.969C375.531 257.406 374.708 254.615 373.062 252.594C371.417 250.573 369.188 249.562 366.375 249.562C363.396 249.562 361 250.604 359.188 252.688C357.375 254.75 356.469 257.344 356.469 260.469ZM403.812 277.688C402.604 278.354 401.01 278.688 399.031 278.688C393.427 278.688 390.625 275.562 390.625 269.312V250.375H385.125V246H390.625V238.188L395.75 236.531V246H403.812V250.375H395.75V268.406C395.75 270.552 396.115 272.083 396.844 273C397.573 273.917 398.781 274.375 400.469 274.375C401.76 274.375 402.875 274.021 403.812 273.312V277.688ZM426.812 276.188V270C427.521 270.625 428.365 271.188 429.344 271.688C430.344 272.188 431.385 272.615 432.469 272.969C433.573 273.302 434.677 273.562 435.781 273.75C436.885 273.938 437.906 274.031 438.844 274.031C442.073 274.031 444.479 273.438 446.062 272.25C447.667 271.042 448.469 269.312 448.469 267.062C448.469 265.854 448.198 264.802 447.656 263.906C447.135 263.01 446.406 262.198 445.469 261.469C444.531 260.719 443.417 260.01 442.125 259.344C440.854 258.656 439.479 257.938 438 257.188C436.438 256.396 434.979 255.594 433.625 254.781C432.271 253.969 431.094 253.073 430.094 252.094C429.094 251.115 428.302 250.01 427.719 248.781C427.156 247.531 426.875 246.073 426.875 244.406C426.875 242.365 427.323 240.594 428.219 239.094C429.115 237.573 430.292 236.323 431.75 235.344C433.208 234.365 434.865 233.635 436.719 233.156C438.594 232.677 440.5 232.438 442.438 232.438C446.854 232.438 450.073 232.969 452.094 234.031V239.938C449.448 238.104 446.052 237.188 441.906 237.188C440.76 237.188 439.615 237.312 438.469 237.562C437.323 237.792 436.302 238.177 435.406 238.719C434.51 239.26 433.781 239.958 433.219 240.812C432.656 241.667 432.375 242.708 432.375 243.938C432.375 245.083 432.583 246.073 433 246.906C433.438 247.74 434.073 248.5 434.906 249.188C435.74 249.875 436.75 250.542 437.938 251.188C439.146 251.833 440.531 252.542 442.094 253.312C443.698 254.104 445.219 254.938 446.656 255.812C448.094 256.688 449.354 257.656 450.438 258.719C451.521 259.781 452.375 260.958 453 262.25C453.646 263.542 453.969 265.021 453.969 266.688C453.969 268.896 453.531 270.771 452.656 272.312C451.802 273.833 450.635 275.073 449.156 276.031C447.698 276.99 446.01 277.677 444.094 278.094C442.177 278.531 440.156 278.75 438.031 278.75C437.323 278.75 436.448 278.688 435.406 278.562C434.365 278.458 433.302 278.292 432.219 278.062C431.135 277.854 430.104 277.594 429.125 277.281C428.167 276.948 427.396 276.583 426.812 276.188ZM475 277.688C473.792 278.354 472.198 278.688 470.219 278.688C464.615 278.688 461.812 275.562 461.812 269.312V250.375H456.312V246H461.812V238.188L466.938 236.531V246H475V250.375H466.938V268.406C466.938 270.552 467.302 272.083 468.031 273C468.76 273.917 469.969 274.375 471.656 274.375C472.948 274.375 474.062 274.021 475 273.312V277.688ZM507.719 278H502.594V272.938H502.469C500.344 276.812 497.052 278.75 492.594 278.75C484.969 278.75 481.156 274.208 481.156 265.125V246H486.25V264.312C486.25 271.062 488.833 274.438 494 274.438C496.5 274.438 498.552 273.521 500.156 271.688C501.781 269.833 502.594 267.417 502.594 264.438V246H507.719V278ZM545.406 278H540.281V272.562H540.156C537.781 276.688 534.115 278.75 529.156 278.75C525.135 278.75 521.917 277.323 519.5 274.469C517.104 271.594 515.906 267.688 515.906 262.75C515.906 257.458 517.24 253.219 519.906 250.031C522.573 246.844 526.125 245.25 530.562 245.25C534.958 245.25 538.156 246.979 540.156 250.438H540.281V230.625H545.406V278ZM540.281 263.531V258.812C540.281 256.229 539.427 254.042 537.719 252.25C536.01 250.458 533.844 249.562 531.219 249.562C528.094 249.562 525.635 250.708 523.844 253C522.052 255.292 521.156 258.458 521.156 262.5C521.156 266.188 522.01 269.104 523.719 271.25C525.448 273.375 527.76 274.438 530.656 274.438C533.51 274.438 535.823 273.406 537.594 271.344C539.385 269.281 540.281 266.677 540.281 263.531ZM558.406 237.875C557.49 237.875 556.708 237.562 556.062 236.938C555.417 236.312 555.094 235.521 555.094 234.562C555.094 233.604 555.417 232.812 556.062 232.188C556.708 231.542 557.49 231.219 558.406 231.219C559.344 231.219 560.135 231.542 560.781 232.188C561.448 232.812 561.781 233.604 561.781 234.562C561.781 235.479 561.448 236.26 560.781 236.906C560.135 237.552 559.344 237.875 558.406 237.875ZM560.906 278H555.781V246H560.906V278ZM584.656 278.75C579.927 278.75 576.146 277.26 573.312 274.281C570.5 271.281 569.094 267.312 569.094 262.375C569.094 257 570.562 252.802 573.5 249.781C576.438 246.76 580.406 245.25 585.406 245.25C590.177 245.25 593.896 246.719 596.562 249.656C599.25 252.594 600.594 256.667 600.594 261.875C600.594 266.979 599.146 271.073 596.25 274.156C593.375 277.219 589.51 278.75 584.656 278.75ZM585.031 249.562C581.74 249.562 579.135 250.688 577.219 252.938C575.302 255.167 574.344 258.25 574.344 262.188C574.344 265.979 575.312 268.969 577.25 271.156C579.188 273.344 581.781 274.438 585.031 274.438C588.344 274.438 590.885 273.365 592.656 271.219C594.448 269.073 595.344 266.021 595.344 262.062C595.344 258.062 594.448 254.979 592.656 252.812C590.885 250.646 588.344 249.562 585.031 249.562Z" fill="white"/>
</g>
<defs>
<linearGradient id="paint0_linear_11_2" x1="408" y1="0" x2="408" y2="504" gradientUnits="userSpaceOnUse">
<stop stop-color="#13604C"/>
<stop offset="1" stop-color="#74AA9C"/>
</linearGradient>
<clipPath id="clip0_11_2">
<rect width="816" height="504" fill="white"/>
</clipPath>
</defs>
</svg>
